<svg xmlns="http://www.w3.org/2000/svg" width="17.781" height="17.781" viewBox="0 0 17.781 17.781">
  <path id="Icon_awesome-question-circle" data-name="Icon awesome-question-circle" d="M18.344,9.453A8.891,8.891,0,1,1,9.453.563,8.89,8.89,0,0,1,18.344,9.453ZM9.692,3.5A4.643,4.643,0,0,0,5.514,5.788a.431.431,0,0,0,.1.583l1.244.943a.43.43,0,0,0,.6-.076c.64-.812,1.08-1.283,2.054-1.283.732,0,1.638.471,1.638,1.182,0,.537-.443.813-1.166,1.218-.843.473-1.959,1.061-1.959,2.533v.143a.43.43,0,0,0,.43.43h2.008a.43.43,0,0,0,.43-.43v-.048c0-1.02,2.982-1.063,2.982-3.824C13.869,5.079,11.712,3.5,9.692,3.5Zm-.239,8.891A1.649,1.649,0,1,0,11.1,14.042,1.651,1.651,0,0,0,9.453,12.393Z" transform="translate(-0.563 -0.563)" fill="#feaa01"/>
</svg>
