<svg id="Fragezeichen_klein" xmlns="http://www.w3.org/2000/svg" xmlns:xlink="http://www.w3.org/1999/xlink" width="15" height="15" viewBox="0 0 15 15">
  <defs>
    <clipPath id="clip-path">
      <rect id="Rechteck_9459" data-name="Rechteck 9459" width="15" height="15" fill="#fff"/>
    </clipPath>
  </defs>
  <g id="Gruppe_19939" data-name="Gruppe 19939" clip-path="url(#clip-path)">
    <path id="Pfad_185504" data-name="Pfad 185504" d="M7.5,0A7.5,7.5,0,1,0,15,7.5,7.509,7.509,0,0,0,7.5,0m0,13.636A6.136,6.136,0,1,1,13.636,7.5,6.144,6.144,0,0,1,7.5,13.636" fill="#fff"/>
    <path id="Pfad_185505" data-name="Pfad 185505" d="M10.617,5.116a2.8,2.8,0,0,0-3.58,1.677.682.682,0,1,0,1.282.464,1.432,1.432,0,0,1,2.778.472c0,.74-1.221,1.322-1.648,1.467a.682.682,0,1,0,.432,1.293c.105-.035,2.579-.884,2.579-2.765a2.808,2.808,0,0,0-1.844-2.609" transform="translate(-2.226 -1.575)" fill="#fff"/>
    <path id="Pfad_185506" data-name="Pfad 185506" d="M10.943,15.05a.669.669,0,0,0-.743.15.664.664,0,0,0-.2.484.672.672,0,0,0,.048.259.827.827,0,0,0,.15.218.6.6,0,0,0,.218.15.741.741,0,0,0,.266.055.679.679,0,0,0,.259-.055.6.6,0,0,0,.218-.15.667.667,0,0,0,0-.961.692.692,0,0,0-.218-.15" transform="translate(-3.182 -4.772)" fill="#fff"/>
  </g>
</svg>
