<?xml version="1.0" encoding="UTF-8" standalone="no"?>
<!DOCTYPE svg PUBLIC "-//W3C//DTD SVG 1.1//EN" "http://www.w3.org/Graphics/SVG/1.1/DTD/svg11.dtd">
<svg width="100%" height="100%" viewBox="0 0 302 58" version="1.1" xmlns="http://www.w3.org/2000/svg" xmlns:xlink="http://www.w3.org/1999/xlink" xml:space="preserve" xmlns:serif="http://www.serif.com/" style="fill-rule:evenodd;clip-rule:evenodd;stroke-linejoin:round;stroke-miterlimit:2;">
    <g id="Pfad_1" transform="matrix(1,0,0,1,-144.98,-73.162)">
        <path d="M206.693,73.162C201.026,73.053 195.38,73.882 189.983,75.615C187.208,76.537 184.597,77.894 182.249,79.637C181.185,80.439 180.201,81.341 179.31,82.332C178.414,83.325 177.632,84.415 176.978,85.581C176.322,84.41 175.536,83.316 174.636,82.32C173.158,80.689 171.442,79.292 169.546,78.175C164.839,75.355 157.777,73.183 147.229,73.162C144.774,73.714 145.015,76.439 145.015,76.439L144.98,76.439L144.98,115.839C145.127,116.879 145.767,118.577 148.414,118.429L148.421,118.454C150.536,118.47 152.648,118.604 154.748,118.854C159.415,119.3 163.955,120.63 168.125,122.771C170.132,123.852 171.898,125.332 173.314,127.119C173.547,127.422 173.767,127.737 173.973,128.063C174.262,128.482 174.517,128.923 174.735,129.383C174.93,130.436 175.873,131.198 176.943,131.166C177.956,131.239 178.889,130.581 179.159,129.601C179.249,129.401 179.333,129.201 179.433,129.013C179.633,128.628 179.861,128.259 180.1,127.898C181.338,126.069 182.951,124.525 184.832,123.368C188.415,121.26 192.372,119.863 196.484,119.253C199.592,118.724 202.738,118.456 205.891,118.453L206.391,118.453C207.767,118.362 208.878,117.263 208.984,115.888L208.984,75.688C208.889,74.427 207.942,73.384 206.697,73.167M205.997,115.457L205.897,115.457C203.546,115.461 201.198,115.602 198.864,115.88C193.806,116.369 188.888,117.82 184.375,120.157C182.115,121.388 180.115,123.044 178.486,125.036L178.486,120.636C178.486,120.636 178.577,118.808 178.566,118.695C178.546,118.51 178.521,118.327 178.486,118.149C178.406,117.737 178.283,117.335 178.118,116.949C178.044,116.774 177.961,116.602 177.868,116.436C177.555,115.887 177.162,115.387 176.702,114.953C176.172,114.467 175.572,114.064 174.921,113.758C174.746,113.678 174.592,113.614 174.46,113.558L174.454,113.538C170.933,112.366 168.543,109.05 168.543,105.34C168.543,101.81 170.705,98.62 173.984,97.313L173.984,97.289C173.986,97.288 173.988,97.288 173.99,97.289C174.066,97.26 174.141,97.227 174.215,97.189C174.528,97.026 174.774,96.759 174.909,96.433C174.984,96.254 175.023,96.062 175.024,95.868C175.024,95.865 175.024,95.863 175.024,95.86C175.024,95.042 174.351,94.368 173.532,94.368C173.531,94.368 173.531,94.368 173.53,94.368C173.389,94.37 173.248,94.391 173.113,94.432C173.094,94.437 173.077,94.447 173.058,94.452L173.058,94.447C168.556,96.168 165.567,100.512 165.567,105.331C165.567,110.211 168.631,114.596 173.213,116.274L173.213,116.281L173.241,116.291C173.744,116.464 174.209,116.731 174.611,117.08C174.9,117.332 175.138,117.637 175.311,117.98C175.388,118.144 175.45,118.314 175.497,118.489L175.497,125.025L175.282,124.78L175.277,124.772C173.979,123.232 172.449,121.905 170.741,120.837C166.826,118.515 162.498,116.972 157.996,116.296C154.719,115.74 151.402,115.459 148.078,115.455L147.978,115.455L147.978,76.159C153.075,76.114 158.146,76.884 163,78.44C165.478,79.261 167.809,80.47 169.908,82.022C171.898,83.48 173.523,85.381 174.653,87.574C174.66,87.59 174.667,87.606 174.676,87.622L174.667,87.629C174.678,87.643 174.687,87.659 174.699,87.674C174.877,88.039 175.02,88.374 175.132,88.674C175.183,88.807 175.226,88.929 175.266,89.047C175.314,89.263 175.351,89.481 175.377,89.701L175.377,91.007L175.436,91.885C175.512,92.449 175.668,93 175.899,93.52C175.965,93.668 176.036,93.813 176.113,93.951C176.19,94.089 176.261,94.201 176.339,94.322C176.606,94.73 176.921,95.103 177.279,95.434C177.808,95.92 178.409,96.322 179.06,96.626C179.304,96.742 179.556,96.842 179.813,96.926L179.819,96.944C183.289,98.151 185.629,101.443 185.629,105.117C185.629,107.411 184.717,109.613 183.095,111.235C182.918,111.41 182.732,111.577 182.539,111.735C182.494,111.774 182.447,111.814 182.397,111.852C182.205,112.007 182.009,112.158 181.797,112.295C181.587,112.435 181.367,112.563 181.143,112.686C181.095,112.713 181.043,112.738 180.999,112.764C180.775,112.882 180.546,112.992 180.311,113.09C179.988,113.22 179.705,113.434 179.494,113.711C179.408,113.844 179.344,113.989 179.302,114.142C179.261,114.274 179.239,114.412 179.237,114.55C179.237,115.373 179.914,116.05 180.737,116.05C180.889,116.047 181.041,116.021 181.185,115.972L181.196,115.967C181.245,115.949 181.29,115.929 181.335,115.909L181.422,115.871C181.779,115.723 182.122,115.56 182.465,115.38L182.471,115.375C182.635,115.287 182.798,115.197 182.958,115.1C182.969,115.095 182.982,115.085 182.992,115.08C183.142,114.991 183.292,114.897 183.436,114.799L183.513,114.747C183.646,114.657 183.776,114.567 183.904,114.474C183.946,114.441 183.992,114.406 184.034,114.374C184.141,114.293 184.248,114.211 184.353,114.126C184.427,114.066 184.498,114.003 184.57,113.941C184.642,113.879 184.718,113.816 184.79,113.751C184.934,113.621 185.075,113.488 185.212,113.351C187.394,111.167 188.622,108.203 188.622,105.115C188.622,100.156 185.456,95.716 180.767,94.1L180.767,94.09L180.739,94.082C180.235,93.91 179.77,93.642 179.369,93.293C179.08,93.041 178.842,92.736 178.669,92.393C178.462,91.961 178.359,91.486 178.369,91.007C178.369,90.931 178.369,90.853 178.377,90.773L178.369,90.773L178.427,90.039C178.583,89.302 178.827,88.587 179.154,87.909C179.207,87.821 179.25,87.727 179.284,87.63C180.867,84.598 183.331,82.115 186.351,80.51C190.403,78.191 196.589,76.282 205.991,76.164L205.997,115.457Z" style="fill:white;fill-rule:nonzero;"/>
    </g>
    <g id="Gruppe_19811" transform="matrix(1,0,0,1,-673.576,-347.465)">
        <g id="Pfad_2" transform="matrix(1,0,0,1,742.898,20.325)">
            <path d="M21.556,328.164L28.718,328.164L38.744,371.9L33.974,371.9L31.651,361.811L18.622,361.811L16.3,371.9L11.53,371.9L21.556,328.164ZM25.101,333.411L19.511,357.771L30.7,357.771L25.101,333.411Z" style="fill:white;fill-rule:nonzero;"/>
        </g>
        <g id="Pfad_3" transform="matrix(1,0,0,1,700.016,20.325)">
            <path d="M96.025,371.9L91.251,371.9L91.251,328.164L101.551,328.164C105.104,328.164 107.8,328.995 109.639,330.658C111.535,332.446 112.546,334.984 112.401,337.586L112.401,347.005C112.401,351.58 110.401,354.496 106.401,355.753L114.788,371.9L109.538,371.9L101.554,356.426L96.025,356.426L96.025,371.9ZM107.625,347L107.625,337.581C107.712,336.091 107.136,334.636 106.054,333.609C104.783,332.594 103.177,332.091 101.554,332.201L96.025,332.201L96.025,352.39L101.548,352.39C105.597,352.39 107.621,350.595 107.622,347.005" style="fill:white;fill-rule:nonzero;"/>
        </g>
        <g id="Pfad_4" transform="matrix(1,0,0,1,662.624,21.52)">
            <path d="M178.5,362.3L178.5,358.6L183.279,358.6L183.279,362.3C183.434,364.924 182.406,367.484 180.479,369.271C178.612,370.908 175.815,371.726 172.088,371.726C168.361,371.726 165.541,370.908 163.63,369.271C161.664,367.506 160.608,364.937 160.764,362.3L160.764,335.373C160.606,332.751 161.635,330.191 163.564,328.408C165.425,326.765 168.221,325.945 171.953,325.947C175.685,325.949 178.504,326.769 180.411,328.408C182.377,330.17 183.434,332.737 183.278,335.373L183.278,341.773L178.5,341.773L178.5,335.373C178.5,331.782 176.34,329.988 172.019,329.989C167.698,329.99 165.539,331.785 165.542,335.373L165.542,362.3C165.542,365.895 167.701,367.691 172.019,367.688C176.337,367.685 178.497,365.889 178.5,362.3" style="fill:white;fill-rule:nonzero;"/>
        </g>
        <g id="Pfad_5" transform="matrix(1,0,0,1,622.446,20.325)">
            <path d="M240.237,371.9L235.46,371.9L235.46,328.164L240.237,328.164L240.237,347.678L253.672,347.678L253.672,328.164L258.449,328.164L258.449,371.9L253.672,371.9L253.672,351.714L240.237,351.714L240.237,371.9Z" style="fill:white;fill-rule:nonzero;"/>
        </g>
        <g id="Pfad_6" transform="matrix(1,0,0,1,582.091,20.325)">
            <path d="M322.047,367.865L322.047,371.9L310.455,371.9L310.455,367.863L313.864,367.863L313.864,332.2L310.455,332.2L310.455,328.16L322.047,328.16L322.047,332.2L318.637,332.2L318.637,367.861L322.047,367.865Z" style="fill:white;fill-rule:nonzero;"/>
        </g>
        <g id="Pfad_7" transform="matrix(1,0,0,1,556.252,21.52)">
            <path d="M381.715,335.373L381.715,362.3C381.869,364.944 380.799,367.517 378.815,369.271C376.878,370.908 373.991,371.726 370.152,371.726C366.313,371.726 363.413,370.908 361.452,369.271C359.451,367.527 358.369,364.95 358.523,362.3L358.523,335.373C358.369,332.731 359.44,330.16 361.423,328.408C363.356,326.765 366.244,325.945 370.086,325.947C373.928,325.949 376.828,326.769 378.786,328.408C380.785,330.151 381.869,332.725 381.717,335.373M376.944,362.3L376.944,335.373C376.944,331.782 374.669,329.988 370.119,329.989C365.569,329.99 363.295,331.785 363.298,335.373L363.298,362.3C363.298,365.895 365.572,367.691 370.119,367.688C374.666,367.685 376.941,365.889 376.944,362.3" style="fill:white;fill-rule:nonzero;"/>
        </g>
        <g id="Pfad_8" transform="matrix(1,0,0,1,514.483,20.325)">
            <path d="M440.953,371.9L436.182,371.9L436.182,328.164L440.953,328.164L455.753,361.811L455.753,328.164L460.526,328.164L460.526,371.9L455.753,371.9L440.953,338.257L440.953,371.9Z" style="fill:white;fill-rule:nonzero;"/>
        </g>
    </g>
</svg>
