<svg xmlns="http://www.w3.org/2000/svg" xmlns:xlink="http://www.w3.org/1999/xlink" width="20" height="17.706" viewBox="0 0 20 17.706">
  <defs>
    <clipPath id="clip-path">
      <rect id="Rechteck_9455" data-name="Rechteck 9455" width="20" height="17.706" fill="#fff"/>
    </clipPath>
  </defs>
  <g id="Forum" transform="translate(0 0)">
    <g id="Gruppe_19931" data-name="Gruppe 19931" transform="translate(0 0)" clip-path="url(#clip-path)">
      <path id="Pfad_185497" data-name="Pfad 185497" d="M17.935,4.291l-3.867,0q0-1.07,0-2.141A2.023,2.023,0,0,0,11.945,0Q7.04,0,2.137,0A2.048,2.048,0,0,0,0,2.142Q0,5.217,0,8.291a2.018,2.018,0,0,0,1.654,2.07v3.005a.657.657,0,0,0,1.133.453l3.24-3.407h.409l0,1.862a1.988,1.988,0,0,0,2.085,2.062H13.99l2.792,3.148a.657.657,0,0,0,1.149-.436V14.336A1.977,1.977,0,0,0,20,12.247q0-2.936,0-5.871a1.967,1.967,0,0,0-2.064-2.084M5.274,9.3l-2.3,2.419V9.755A.657.657,0,0,0,2.316,9.1a.588.588,0,0,0-.082.017V9.1H2.149a.738.738,0,0,1-.831-.809q-.008-3.072,0-6.144a.738.738,0,0,1,.821-.827q4.9-.008,9.8,0a.728.728,0,0,1,.811.831q0,3.056,0,6.113a.734.734,0,0,1-.832.836H5.75v0a.65.65,0,0,0-.476.2m13.412,2.943a.676.676,0,0,1-.773.777h-.651v0a.655.655,0,0,0-.644.654v1.638l-1.841-2.074a.655.655,0,0,0-.454-.22H8.529a.676.676,0,0,1-.771-.751l0-1.859h4.167a2.034,2.034,0,0,0,2.145-2.15q0-1.331,0-2.66l3.865,0a.677.677,0,0,1,.753.771q0,2.935,0,5.87" transform="translate(0 0)" fill="#fff"/>
    </g>
  </g>
</svg>
