<svg xmlns="http://www.w3.org/2000/svg" width="35" height="31.902" viewBox="0 0 35 31.902">
  <path id="Icon_simple-minutemailer" data-name="Icon simple-minutemailer" d="M8.114,4.055l5.031,6.407L9.6,18.693l7.5-1.58L20.5,26.8,35,4.437ZM7.187,17.931l1.4-1.35-1.8.669L6.6,16.941l.744-.849-.976.463C2.644,18.254,0,22.5,0,27.469a12.7,12.7,0,0,0,3.111,8.488A13.223,13.223,0,0,1,1.82,30.2c0-4.916,2.638-9.291,6.293-11.015l.459-1.314-1.094.568-.308-.489.016-.019Zm6.364-3.38,2.33-4.84L29.587,5.935,13.551,14.551Z" transform="translate(0 -4.055)" fill="#feaa01"/>
</svg>
